<?xml version="1.0" encoding="utf-8"?>
<!-- Generator: Adobe Illustrator 16.0.0, SVG Export Plug-In . SVG Version: 6.00 Build 0)  -->
<!DOCTYPE svg PUBLIC "-//W3C//DTD SVG 1.1//EN" "http://www.w3.org/Graphics/SVG/1.1/DTD/svg11.dtd">
<svg version="1.1" id="Layer_1" xmlns="http://www.w3.org/2000/svg" xmlns:xlink="http://www.w3.org/1999/xlink" x="0px" y="0px"
	 width="13.111px" height="15.64px" viewBox="0 0 13.111 15.64" enable-background="new 0 0 13.111 15.64" xml:space="preserve">
<polygon points="-129.16,10.792 -131.842,13.678 -131.842,0.001 -132.781,0.001 -132.781,13.681 -135.465,10.792 -136.153,11.435 
	-132.313,15.563 -128.472,11.435 "/>
<polygon points="-105.056,0.001 -105.056,15.642 -91.944,7.821 "/>
<polygon points="-44.703,7.821 -55.987,1.091 -55.987,6.503 -66.724,0.099 -66.724,15.544 -55.987,9.14 -55.987,14.552 "/>
<polygon points="-31.689,7.821 -20.405,1.091 -20.405,6.503 -9.668,0.099 -9.668,15.544 -20.405,9.14 -20.405,14.552 "/>
<g>
	<rect width="4.356" height="15.64"/>
	<rect x="8.755" width="4.356" height="15.64"/>
</g>
</svg>
